<?xml version="1.0" encoding="utf-8"?>
<!-- Generator: Adobe Illustrator 18.0.0, SVG Export Plug-In . SVG Version: 6.00 Build 0)  -->
<!DOCTYPE svg PUBLIC "-//W3C//DTD SVG 1.1//EN" "http://www.w3.org/Graphics/SVG/1.1/DTD/svg11.dtd">
<svg version="1.1" id="Ebene_1" xmlns="http://www.w3.org/2000/svg" xmlns:xlink="http://www.w3.org/1999/xlink" x="0px" y="0px"
	 viewBox="0 0 256 256" enable-background="new 0 0 256 256" xml:space="preserve">
<g>
	<g>
		<linearGradient id="SVGID_1_" gradientUnits="userSpaceOnUse" x1="128" y1="256" x2="128" y2="4.701169e-07">
			<stop  offset="0" style="stop-color:#052D55"/>
			<stop  offset="1" style="stop-color:#001E3C"/>
		</linearGradient>
		<rect fill="url(#SVGID_1_)" width="256" height="256"/>
	</g>
	<g>
		<path fill="#FAB432" d="M41.722,96.371c0-3.248,1.684-5.053,4.933-5.053h27.914c16.003,0,27.192,11.189,27.192,27.794
			s-11.189,28.155-27.192,28.155H57.123v24.425c0,3.369-1.685,5.053-4.933,5.053h-5.535c-3.249,0-4.933-1.684-4.933-5.053V96.371z
			 M71.682,133.791c9.144,0,14.318-5.775,14.318-14.679c0-8.784-5.174-14.438-14.078-14.438H57.123v29.118H71.682z"/>
		<path fill="#FAB432" d="M111.747,96.852c-0.842-3.369,0.722-5.535,4.331-5.535h6.016c2.888,0,4.693,1.444,5.415,4.452
			l12.393,54.625c1.083,4.812,1.323,9.024,1.323,9.024h0.241c0,0,0.481-4.091,1.805-9.024l14.198-54.746
			c0.842-2.887,2.647-4.331,5.655-4.331h4.091c3.008,0,4.812,1.444,5.415,4.331l14.077,54.746c1.324,4.933,1.805,9.024,1.805,9.024
			h0.241c0,0,0.361-4.212,1.443-9.024l13.115-54.625c0.602-3.008,2.406-4.452,5.535-4.452h5.655c3.61,0,5.294,2.165,4.452,5.535
			l-19.612,75.682c-0.842,2.887-2.647,4.211-5.655,4.211h-8.543c-3.008,0-4.813-1.444-5.535-4.331l-12.152-46.203
			c-1.444-5.535-2.286-11.19-2.286-11.19h-0.361c0,0-0.842,5.655-2.166,11.19l-12.272,46.203c-0.722,2.887-2.527,4.331-5.535,4.331
			h-8.663c-3.008,0-4.813-1.444-5.535-4.331L111.747,96.852z"/>
	</g>
</g>
</svg>
